<?xml version="1.0" encoding="utf-8"?>
<!-- Svg Vector Icons : http://www.onlinewebfonts.com/icon -->
<!DOCTYPE svg PUBLIC "-//W3C//DTD SVG 1.1//EN" "http://www.w3.org/Graphics/SVG/1.1/DTD/svg11.dtd">
<svg version="1.1" xmlns="http://www.w3.org/2000/svg" xmlns:xlink="http://www.w3.org/1999/xlink" x="0px" y="0px" viewBox="0 0 256 256" enable-background="new 0 0 256 256" xml:space="preserve">
<metadata> Svg Vector Icons : http://www.onlinewebfonts.com/icon </metadata>
<g> <path fill="#faf8c8" d="M195.2,229.8c1.4,3.7-0.8,7.7-5,9c-0.8,0.2-1.7,0.4-2.6,0.4H68.7c-4.4,0-8-3.2-8-7.1c0-0.8,0.1-1.5,0.4-2.3 l9.6-24.5c-5.8-32.8-9.5-60.6-11.3-83.1c-1.8-23.1-1.9-47-0.4-71.6c0.2-3.5,3.5-6.2,7.4-6.2h123.2c4,0,7.3,2.8,7.4,6.4 c1.1,36.2,1.1,62.7-0.2,79.5c-1.2,16.2-5,41.2-11.2,75.2L195.2,229.8L195.2,229.8z"/> <path fill="#f7d169" d="M72.8,63.1H185c1,40,0.5,67-1.5,81.2c-3.1,21.2-4.1,27.9-7,37.4c-1.4,4.7-2.6,11-3.1,19.6 c-0.1,2.1-0.1,5.7,0,10.8H83.2c1.4-2.1,2.1-3.9,2.1-5.5c0-2.4-8.4-61.9-10.1-72.3c-0.8-4.7-2.7-17.5-2.9-37.2 C72.2,90.6,72.3,79.3,72.8,63.1z"/> <path fill="#fbecc2" d="M128.3,198.2c-4.3,0-7.9-3.1-7.9-6.9c0-3.8,3.5-6.9,7.9-6.9c4.3,0,7.9,3.1,7.9,6.9 C136.1,195.1,132.6,198.2,128.3,198.2z M123.4,153.3c-2.6,0-4.7-1.9-4.7-4.1s2.1-4.1,4.7-4.1s4.7,1.9,4.7,4.1 S126,153.3,123.4,153.3z M148.7,137.7c-3.6,0-6.5-2.6-6.5-5.7s2.9-5.7,6.5-5.7s6.5,2.5,6.5,5.7S152.3,137.7,148.7,137.7z  M115.1,126.2c-2.6,0-4.7-1.9-4.7-4.1c0-2.3,2.1-4.1,4.7-4.1s4.7,1.9,4.7,4.1C119.9,124.4,117.8,126.2,115.1,126.2z"/> <path fill="#fae2a0" d="M55.3,23.4h144.9v18.1H55.3V23.4z"/> <path fill="#ffffff" d="M175.7,39.1v-0.3c0-3,2.4-5.5,5.5-5.5s5.5,2.4,5.5,5.5v0.3h7.2v23.9H62.5V39.1h13v-0.3 c0-3.8,3.1-6.8,6.9-6.8c3.8,0,6.9,3.1,6.9,6.8v0.3h0.9c0.9-1.8,2.8-3.1,4.9-3.1c1.9,0,3.5,0.9,4.5,2.3c0-0.2,0-0.4,0-0.6 c0-3,2.4-5.5,5.5-5.5c3,0,5.5,2.4,5.5,5.5c0,0.5-0.1,0.9-0.2,1.4h0.7c0.9-1.8,2.8-3.1,4.9-3.1c2.2,0,4,1.2,4.9,3.1h5.3v-0.3 c0-3.8,3.1-6.8,6.9-6.8s6.9,3.1,6.9,6.8v0.3h8.1c0.9-1.8,2.8-3.1,4.9-3.1s4,1.2,4.9,3.1c0.7-4.1,4.3-7.2,8.6-7.2 c4.3,0,7.9,3.1,8.6,7.2L175.7,39.1L175.7,39.1z"/> <path fill="#fffcf5" d="M76.4,81.6c0.1-6.6,5.6-11.9,12.2-11.7c6.6,0.1,11.9,5.6,11.7,12.2c-0.5,23.2,0.8,45.1,3.7,65.6 c0.5,3.5,3.5,23.5,4.1,27.7c0.2,1.1,0.3,2.3,0.5,3.3c1,7,1.9,13,2.5,18.1c0.5,3.5,0.7,5.6,0.9,8.6c0.3,3.9,0.5,5.7,1,9.8 c0.9,6.5-3.8,12.5-10.3,13.4c-6.5,0.9-12.6-3.8-13.4-10.3c-0.6-4.6-0.8-6.8-1.1-10.8c-0.2-2.9-0.4-4.5-0.8-7.6 c-0.7-5-1.5-10.9-2.5-17.8c-0.2-1.1-0.3-2.2-0.5-3.3c-0.6-4.2-3.7-24.2-4.2-27.8C77.3,129.3,76,106.1,76.4,81.6z"/> <path fill="#f6b54c" d="M161.2,62.9h23.9v68.2c0,8.4-1.7,18.5-5.3,35.2c-0.3,1.3-0.6,2.7-0.9,4.3c-4.4,20-5.4,25.3-5.6,30.2 c-0.1,1.9-0.8,6.1,0,11.4h-22.8c-1-5.8-1.3-8.5-1.1-12.4c0.2-4.1,0.9-9.2,2.2-15.8c0.9-4.5,0.9-4.6,3.9-18.4 c0.3-1.6,0.7-2.9,0.9-4.2c3.2-15,4.8-24.1,4.8-30.1V62.9L161.2,62.9z"/> <path fill="#6f1e19" d="M179.3,207.9c-0.5-1.2-0.6-2.5-0.3-3.8c6.2-33.8,9.9-58.7,11.2-74.5c1.2-16.3,1.3-69.4,0.2-105.7 c-0.1-0.1-0.3-0.1-0.6-0.1H66.6c-0.2,0-0.4,0-0.6,0.1c-1.5,24.9-1.3,75.4,0.4,97.7c1.7,22.3,5.4,49.9,11.2,82.5 c0.2,1.2,0.1,2.5-0.4,3.7l-9.4,24.2c0.2,0.2,0.6,0.3,1,0.3h118.8c0.2,0,0.4,0,0.6-0.1c0.2-0.1,0.3-0.1,0.4-0.2L179.3,207.9 L179.3,207.9z M201.6,227.3c3,7.6-1.5,15.7-9.4,18.1c-1.5,0.4-3,0.7-4.6,0.7H68.8c-8.1,0-14.9-6-14.9-14c0-1.7,0.3-3.3,0.9-4.8 l8.9-22.7c-5.6-32.2-9.3-59.5-11-81.9c-1.8-23-2-74.6-0.4-99.9C52.7,15.4,59.1,10,66.6,10h123.1c7.6,0,14.1,5.6,14.3,13.1 c1.2,36.8,1.1,90.6-0.2,107.6c-1.2,16.1-4.9,40.8-11,74L201.6,227.3L201.6,227.3z"/></g>
</svg>